<?xml version="1.0" encoding="UTF-8"?>
<svg xmlns="http://www.w3.org/2000/svg" xmlns:xlink="http://www.w3.org/1999/xlink" viewBox="0 0 433.64 288">
  <defs>
    <style>
      .cls-1 {
        clip-path: url(#clippath);
      }

      .cls-2 {
        fill: #fff;
      }

      .cls-3 {
        fill: url(#linear-gradient-6);
      }

      .cls-3, .cls-4, .cls-5, .cls-6, .cls-7, .cls-8, .cls-9, .cls-10, .cls-11, .cls-12, .cls-13, .cls-14, .cls-15, .cls-16, .cls-17, .cls-18, .cls-19, .cls-20, .cls-21, .cls-22, .cls-23, .cls-24, .cls-25, .cls-26, .cls-27, .cls-28, .cls-29, .cls-30, .cls-31, .cls-32, .cls-33, .cls-34, .cls-35, .cls-36, .cls-37, .cls-38, .cls-39, .cls-40, .cls-41, .cls-42, .cls-43, .cls-44, .cls-45, .cls-46, .cls-47, .cls-48 {
        mix-blend-mode: multiply;
      }

      .cls-4 {
        fill: url(#linear-gradient-7);
      }

      .cls-5 {
        fill: url(#linear-gradient-5);
      }

      .cls-6 {
        fill: url(#linear-gradient-8);
      }

      .cls-7 {
        fill: url(#linear-gradient-9);
      }

      .cls-8 {
        fill: url(#linear-gradient-4);
      }

      .cls-9 {
        fill: url(#linear-gradient-2);
      }

      .cls-10 {
        fill: url(#linear-gradient-3);
      }

      .cls-49 {
        fill: url(#linear-gradient-47);
        mix-blend-mode: screen;
      }

      .cls-50 {
        opacity: .25;
      }

      .cls-11 {
        fill: url(#linear-gradient);
      }

      .cls-51 {
        isolation: isolate;
      }

      .cls-12 {
        fill: url(#linear-gradient-42);
      }

      .cls-13 {
        fill: url(#linear-gradient-43);
      }

      .cls-14 {
        fill: url(#linear-gradient-40);
      }

      .cls-15 {
        fill: url(#linear-gradient-41);
      }

      .cls-16 {
        fill: url(#linear-gradient-44);
      }

      .cls-17 {
        fill: url(#linear-gradient-45);
      }

      .cls-18 {
        fill: url(#linear-gradient-46);
      }

      .cls-19 {
        fill: url(#linear-gradient-17);
      }

      .cls-20 {
        fill: url(#linear-gradient-16);
      }

      .cls-21 {
        fill: url(#linear-gradient-19);
      }

      .cls-22 {
        fill: url(#linear-gradient-15);
      }

      .cls-23 {
        fill: url(#linear-gradient-21);
      }

      .cls-24 {
        fill: url(#linear-gradient-23);
      }

      .cls-25 {
        fill: url(#linear-gradient-14);
      }

      .cls-26 {
        fill: url(#linear-gradient-22);
      }

      .cls-27 {
        fill: url(#linear-gradient-20);
      }

      .cls-28 {
        fill: url(#linear-gradient-18);
      }

      .cls-29 {
        fill: url(#linear-gradient-12);
      }

      .cls-30 {
        fill: url(#linear-gradient-13);
      }

      .cls-31 {
        fill: url(#linear-gradient-10);
      }

      .cls-32 {
        fill: url(#linear-gradient-11);
      }

      .cls-33 {
        fill: url(#linear-gradient-34);
      }

      .cls-34 {
        fill: url(#linear-gradient-37);
      }

      .cls-35 {
        fill: url(#linear-gradient-35);
      }

      .cls-36 {
        fill: url(#linear-gradient-38);
      }

      .cls-37 {
        fill: url(#linear-gradient-32);
      }

      .cls-38 {
        fill: url(#linear-gradient-31);
      }

      .cls-39 {
        fill: url(#linear-gradient-36);
      }

      .cls-40 {
        fill: url(#linear-gradient-39);
      }

      .cls-41 {
        fill: url(#linear-gradient-29);
      }

      .cls-42 {
        fill: url(#linear-gradient-28);
      }

      .cls-43 {
        fill: url(#linear-gradient-25);
      }

      .cls-44 {
        fill: url(#linear-gradient-30);
      }

      .cls-45 {
        fill: url(#linear-gradient-33);
      }

      .cls-46 {
        fill: url(#linear-gradient-26);
      }

      .cls-47 {
        fill: url(#linear-gradient-27);
      }

      .cls-48 {
        fill: url(#linear-gradient-24);
      }
    </style>
    <clipPath id="clippath">
      <rect class="cls-2" x="73.64" y="-72" width="288" height="432" transform="translate(73.64 361.64) rotate(-90)"/>
    </clipPath>
    <linearGradient id="linear-gradient" x1="362.09" y1="135.12" x2="108.24" y2="611.08" gradientTransform="translate(0 288) scale(1 -1)" gradientUnits="userSpaceOnUse">
      <stop offset="0" stop-color="navy"/>
      <stop offset=".13" stop-color="#180f86"/>
      <stop offset=".39" stop-color="#563897"/>
      <stop offset=".78" stop-color="#b878b1"/>
      <stop offset="1" stop-color="#f49fc2"/>
    </linearGradient>
    <linearGradient id="linear-gradient-2" x1="362.21" y1="135.13" x2="108.77" y2="610.32" xlink:href="#linear-gradient"/>
    <linearGradient id="linear-gradient-3" x1="361.96" y1="135.03" x2="108.81" y2="609.68" xlink:href="#linear-gradient"/>
    <linearGradient id="linear-gradient-4" x1="361.48" y1="134.85" x2="108.57" y2="609.06" xlink:href="#linear-gradient"/>
    <linearGradient id="linear-gradient-5" x1="360.76" y1="134.57" x2="108.08" y2="608.34" xlink:href="#linear-gradient"/>
    <linearGradient id="linear-gradient-6" x1="359.68" y1="134.12" x2="107.26" y2="607.4" xlink:href="#linear-gradient"/>
    <linearGradient id="linear-gradient-7" x1="358.58" y1="133.8" x2="106.31" y2="606.8" xlink:href="#linear-gradient"/>
    <linearGradient id="linear-gradient-8" x1="413.44" y1="164.24" x2="156.82" y2="645.39" xlink:href="#linear-gradient"/>
    <linearGradient id="linear-gradient-9" x1="362.76" y1="136.9" x2="109.54" y2="611.67" xlink:href="#linear-gradient"/>
    <linearGradient id="linear-gradient-10" x1="360.88" y1="135.99" x2="107.97" y2="610.21" xlink:href="#linear-gradient"/>
    <linearGradient id="linear-gradient-11" x1="360.45" y1="135.88" x2="107.59" y2="609.98" xlink:href="#linear-gradient"/>
    <linearGradient id="linear-gradient-12" x1="360.9" y1="136.24" x2="107.98" y2="610.48" xlink:href="#linear-gradient"/>
    <linearGradient id="linear-gradient-13" x1="361.57" y1="136.7" x2="108.54" y2="611.12" xlink:href="#linear-gradient"/>
    <linearGradient id="linear-gradient-14" x1="361.53" y1="136.86" x2="108.31" y2="611.66" xlink:href="#linear-gradient"/>
    <linearGradient id="linear-gradient-15" x1="360.07" y1="136.26" x2="106.86" y2="611.02" xlink:href="#linear-gradient"/>
    <linearGradient id="linear-gradient-16" x1="355.1" y1="133.65" x2="102.77" y2="606.76" xlink:href="#linear-gradient"/>
    <linearGradient id="linear-gradient-17" x1="309.72" y1="109.71" x2="57.4" y2="582.8" xlink:href="#linear-gradient"/>
    <linearGradient id="linear-gradient-18" x1="307.82" y1="109.09" x2="55.1" y2="582.95" xlink:href="#linear-gradient"/>
    <linearGradient id="linear-gradient-19" x1="308.61" y1="109.84" x2="55.53" y2="584.37" xlink:href="#linear-gradient"/>
    <linearGradient id="linear-gradient-20" x1="300.79" y1="105.92" x2="47.58" y2="580.68" xlink:href="#linear-gradient"/>
    <linearGradient id="linear-gradient-21" x1="33.86" y1="-31.51" x2="-232.56" y2="468.03" xlink:href="#linear-gradient"/>
    <linearGradient id="linear-gradient-22" x1="291.36" y1="101.12" x2="38.03" y2="576.11" xlink:href="#linear-gradient"/>
    <linearGradient id="linear-gradient-23" x1="38.82" y1="-28.53" x2="-224.25" y2="464.71" xlink:href="#linear-gradient"/>
    <linearGradient id="linear-gradient-24" x1="277.48" y1="94.21" x2="24.24" y2="569.03" xlink:href="#linear-gradient"/>
    <linearGradient id="linear-gradient-25" x1="40.09" y1="-27.73" x2="-221.91" y2="463.53" xlink:href="#linear-gradient"/>
    <linearGradient id="linear-gradient-26" x1="262.66" y1="86.79" x2="9.5" y2="561.45" xlink:href="#linear-gradient"/>
    <linearGradient id="linear-gradient-27" x1="41.28" y1="-27" x2="-219.87" y2="462.65" xlink:href="#linear-gradient"/>
    <linearGradient id="linear-gradient-28" x1="229.01" y1="69.34" x2="-24.05" y2="543.83" xlink:href="#linear-gradient"/>
    <linearGradient id="linear-gradient-29" x1="222.68" y1="66.47" x2="-30.28" y2="540.78" xlink:href="#linear-gradient"/>
    <linearGradient id="linear-gradient-30" x1="215.96" y1="63.41" x2="-36.91" y2="537.53" xlink:href="#linear-gradient"/>
    <linearGradient id="linear-gradient-31" x1="209.19" y1="60.33" x2="-43.57" y2="534.24" xlink:href="#linear-gradient"/>
    <linearGradient id="linear-gradient-32" x1="202.87" y1="57.5" x2="-49.77" y2="531.2" xlink:href="#linear-gradient"/>
    <linearGradient id="linear-gradient-33" x1="197.25" y1="55.06" x2="-55.27" y2="528.54" xlink:href="#linear-gradient"/>
    <linearGradient id="linear-gradient-34" x1="192.41" y1="53.05" x2="-59.98" y2="526.29" xlink:href="#linear-gradient"/>
    <linearGradient id="linear-gradient-35" x1="188.38" y1="51.5" x2="-63.87" y2="524.48" xlink:href="#linear-gradient"/>
    <linearGradient id="linear-gradient-36" x1="185.29" y1="50.46" x2="-66.82" y2="523.17" xlink:href="#linear-gradient"/>
    <linearGradient id="linear-gradient-37" x1="183.36" y1="50.05" x2="-68.6" y2="522.47" xlink:href="#linear-gradient"/>
    <linearGradient id="linear-gradient-38" x1="181.29" y1="49.6" x2="-70.49" y2="521.7" xlink:href="#linear-gradient"/>
    <linearGradient id="linear-gradient-39" x1="177.7" y1="48.35" x2="-73.91" y2="520.13" xlink:href="#linear-gradient"/>
    <linearGradient id="linear-gradient-40" x1="172.85" y1="46.47" x2="-78.57" y2="517.88" xlink:href="#linear-gradient"/>
    <linearGradient id="linear-gradient-41" x1="167.13" y1="44.13" x2="-84.1" y2="515.18" xlink:href="#linear-gradient"/>
    <linearGradient id="linear-gradient-42" x1="161.06" y1="41.59" x2="-90" y2="512.34" xlink:href="#linear-gradient"/>
    <linearGradient id="linear-gradient-43" x1="155.16" y1="39.14" x2="-95.76" y2="509.61" xlink:href="#linear-gradient"/>
    <linearGradient id="linear-gradient-44" x1="149.77" y1="36.88" x2="-101.08" y2="507.22" xlink:href="#linear-gradient"/>
    <linearGradient id="linear-gradient-45" x1="145.17" y1="34.88" x2="-105.76" y2="505.38" xlink:href="#linear-gradient"/>
    <linearGradient id="linear-gradient-46" x1="141.4" y1="32.34" x2="-110.42" y2="504.51" xlink:href="#linear-gradient"/>
    <linearGradient id="linear-gradient-47" x1="360.49" y1="237.47" x2="-6.03" y2="-2.35" gradientTransform="translate(73.64 -73.64) rotate(90) scale(1 -1)" gradientUnits="userSpaceOnUse">
      <stop offset="0" stop-color="navy"/>
      <stop offset=".07" stop-color="#16168b"/>
      <stop offset=".33" stop-color="#6868b3"/>
      <stop offset=".57" stop-color="#a8a8d4"/>
      <stop offset=".76" stop-color="#d7d7eb"/>
      <stop offset=".91" stop-color="#f4f4f9"/>
      <stop offset="1" stop-color="#fff"/>
    </linearGradient>
  </defs>
  <g class="cls-51">
    <g id="Layer_1" data-name="Layer 1">
      <g>
        <g>
          <rect class="cls-2" x="73.64" y="-72" width="288" height="432" transform="translate(73.64 361.64) rotate(-90)"/>
          <g class="cls-1">
            <g class="cls-50">
              <path class="cls-11" d="M427.54,288c1.84-4.52,3.82-9.01,6.11-13.32v-.93c-2.49,4.6-4.62,9.41-6.58,14.25h.48Z"/>
              <path class="cls-9" d="M419.03,288c2.94-7.78,6.06-15.71,10.2-23.01,1.27-2.24,2.71-4.49,4.41-6.9v-.75c-1.87,2.61-3.44,5.03-4.8,7.45-4.18,7.37-7.32,15.38-10.28,23.22h.47Z"/>
              <path class="cls-10" d="M410.66,288c.66-1.72,1.3-3.45,1.94-5.16,3.18-8.53,6.46-17.34,11.04-25.37,2.31-4.05,5.26-8.24,9.3-13.18,.23-.28,.47-.56,.7-.84v-.68c-.35,.42-.71,.84-1.05,1.26-4.05,4.97-7.02,9.17-9.34,13.24-4.6,8.05-7.89,16.88-11.07,25.43-.66,1.76-1.32,3.53-1.99,5.3h.47Z"/>
              <path class="cls-8" d="M402.18,288c1.78-4.26,3.37-8.58,4.94-12.83,3.12-8.48,6.35-17.25,10.93-25.2,2.23-3.89,5.05-7.86,8.87-12.49,2.18-2.65,4.49-5.27,6.72-7.8v-.66c-.1,.11-.2,.23-.3,.34-2.25,2.55-4.57,5.18-6.77,7.85-3.83,4.66-6.67,8.64-8.91,12.55-4.6,7.98-7.83,16.77-10.96,25.27-1.58,4.3-3.2,8.67-5,12.97h.48Z"/>
              <path class="cls-5" d="M393.26,288c3.32-6.62,5.89-13.64,8.37-20.48,3.07-8.44,6.24-17.17,10.82-25.06,2.16-3.73,4.85-7.48,8.45-11.8,2.32-2.79,4.8-5.54,7.19-8.19,1.85-2.06,3.73-4.14,5.55-6.26v-.66c-1.89,2.21-3.86,4.4-5.88,6.64-2.4,2.66-4.87,5.4-7.2,8.21-3.62,4.34-6.31,8.11-8.49,11.86-4.6,7.92-7.78,16.67-10.85,25.12-2.51,6.89-5.09,13.97-8.44,20.63h.49Z"/>
              <path class="cls-3" d="M383.23,288c1.17-1.57,2.27-3.22,3.24-5,4.02-7.33,6.9-15.36,9.68-23.12,3.01-8.41,6.13-17.11,10.71-24.93,2.06-3.52,4.68-7.15,8.02-11.11,2.46-2.93,5.1-5.78,7.65-8.53,4.01-4.33,7.85-8.5,11.11-12.97v-.74c-3.33,4.64-7.3,8.94-11.45,13.43-2.55,2.76-5.19,5.61-7.66,8.55-3.35,3.98-5.99,7.63-8.06,11.17-4.6,7.86-7.73,16.58-10.75,25-2.78,7.75-5.65,15.76-9.65,23.06-1.01,1.85-2.16,3.57-3.39,5.2h.54Z"/>
              <path class="cls-4" d="M370.69,288c4.21-4.1,8.24-8.54,11.18-14.12,3.61-6.88,6.24-14.35,8.79-21.58,2.96-8.39,6.02-17.07,10.61-24.85,2.02-3.41,4.57-6.91,7.79-10.68,2.53-2.96,5.25-5.83,7.87-8.6,5.46-5.75,10.61-11.19,14.37-17.56,1.08-1.84,1.84-3.68,2.34-5.59v-2.33c-.37,2.69-1.25,5.2-2.72,7.71-3.73,6.32-8.87,11.74-14.31,17.48-2.63,2.78-5.36,5.65-7.89,8.62-3.24,3.79-5.81,7.31-7.84,10.74-4.62,7.81-7.68,16.51-10.65,24.93-2.54,7.21-5.17,14.68-8.77,21.53-2.97,5.66-7.11,10.15-11.41,14.32h.63Z"/>
              <path class="cls-6" d="M433.64,147.47c-.41,.68-.77,1.34-1.05,1.97-3.21,7.15-1.61,13.47-.07,19.58,.4,1.57,.8,3.18,1.12,4.79v2.82c-.02-.18-.03-.35-.05-.52-.32-2.34-.92-4.7-1.5-6.99-1.57-6.18-3.18-12.57,.09-19.85,.37-.83,.89-1.71,1.46-2.61v.81Z"/>
              <path class="cls-7" d="M357.81,288c1.8-1.99,3.71-3.91,5.65-5.86,5.06-5.09,10.3-10.36,13.81-17.39,3.2-6.41,5.59-13.33,7.9-20.02,2.9-8.39,5.89-17.06,10.51-24.8,1.97-3.31,4.45-6.66,7.57-10.25,2.6-3,5.41-5.88,8.12-8.66,5.17-5.3,10.06-10.31,13.71-16.15,2.65-4.25,3.62-8.49,3.16-13.76-.2-2.29-.68-4.6-1.13-6.83-1.19-5.81-2.42-11.81,.71-18.6,1.14-2.46,3.24-5.31,5.84-8.23v-.71c-2.76,3.07-5.01,6.1-6.24,8.76-3.19,6.91-1.94,12.98-.74,18.86,.46,2.22,.93,4.52,1.13,6.78,.45,5.17-.5,9.34-3.09,13.5-3.63,5.8-8.5,10.79-13.65,16.08-2.72,2.79-5.53,5.67-8.14,8.68-3.14,3.61-5.63,6.98-7.61,10.31-4.64,7.77-7.64,16.47-10.55,24.87-2.31,6.68-4.69,13.58-7.88,19.97-3.49,6.97-8.7,12.21-13.73,17.28-1.99,2-3.99,4.02-5.9,6.16h.58Z"/>
              <path class="cls-31" d="M348.35,288c3-5.92,7.27-10.57,11.72-15.4,4.61-5.01,9.38-10.2,12.6-16.98,2.8-5.92,4.94-12.27,7.01-18.41,2.83-8.4,5.76-17.08,10.41-24.79,1.93-3.2,4.33-6.41,7.34-9.82,2.67-3.03,5.57-5.92,8.38-8.71,4.88-4.85,9.49-9.44,13.04-14.76,2.64-3.99,3.75-7.98,3.59-12.96-.07-2.22-.42-4.47-.75-6.65-.84-5.49-1.7-11.17,1.34-17.59,1.88-3.95,5.96-8.76,10.62-13.28v-.6c-4.82,4.64-9.08,9.62-11.03,13.7-3.09,6.53-2.22,12.28-1.37,17.83,.34,2.27,.67,4.41,.74,6.6,.16,4.89-.92,8.81-3.51,12.72-3.52,5.29-8.12,9.86-12.98,14.7-2.81,2.8-5.72,5.69-8.4,8.73-3.03,3.43-5.45,6.66-7.39,9.88-4.67,7.74-7.61,16.45-10.45,24.87-2.07,6.13-4.21,12.46-6.99,18.36-3.19,6.72-7.93,11.88-12.53,16.87-4.33,4.71-8.76,9.53-11.86,15.69h.47Z"/>
              <path class="cls-32" d="M342.93,288c.12-.62,.23-1.24,.37-1.85,2.25-9.9,7.66-16.31,13.39-23.09,4.17-4.93,8.47-10.03,11.38-16.56,2.4-5.42,4.29-11.18,6.12-16.76,2.76-8.42,5.62-17.14,10.3-24.82,1.88-3.09,4.21-6.16,7.12-9.38,2.75-3.06,5.75-5.95,8.66-8.74,4.59-4.41,8.92-8.57,12.35-13.39,2.64-3.73,3.88-7.48,4.01-12.16,.06-2.17-.14-4.27-.35-6.51-.48-5.17-.99-10.52,1.95-16.55,2.62-5.34,9.08-12.25,15.4-17.81v-.57c-6.46,5.65-13.12,12.73-15.81,18.2-2.99,6.14-2.48,11.55-1.99,16.78,.21,2.22,.4,4.31,.35,6.45-.13,4.59-1.34,8.28-3.94,11.93-3.4,4.78-7.72,8.93-12.3,13.32-2.91,2.8-5.92,5.69-8.68,8.76-2.93,3.25-5.27,6.34-7.17,9.45-4.71,7.72-7.57,16.46-10.35,24.9-1.82,5.56-3.71,11.32-6.11,16.72-2.88,6.48-7.17,11.55-11.31,16.46-5.51,6.53-11.21,13.27-13.48,23.27-.15,.65-.26,1.29-.38,1.94h.45Z"/>
              <path class="cls-29" d="M339.94,288c.16-4,.51-8.03,1.35-11.98,2.03-9.48,7.11-16.1,12.02-22.51,3.72-4.85,7.56-9.87,10.16-16.15,2.02-4.89,3.66-10.05,5.24-15.05,2.68-8.47,5.46-17.24,10.2-24.91,1.84-2.97,4.09-5.9,6.89-8.95,2.83-3.1,5.94-5.97,8.95-8.76,4.29-3.97,8.35-7.72,11.64-12.03,2.65-3.48,4.02-6.98,4.44-11.37,.2-2.12,.14-4.2,.08-6.4-.14-4.84-.29-9.85,2.54-15.48,3.42-6.77,12.94-16.29,20.19-22.1v-.57c-7.38,5.84-17.04,15.45-20.59,22.48-2.88,5.73-2.73,10.79-2.58,15.68,.06,2.19,.12,4.25-.08,6.35-.42,4.3-1.76,7.74-4.36,11.15-3.27,4.28-7.31,8.02-11.59,11.97-3.02,2.79-6.13,5.67-8.98,8.78-2.82,3.07-5.09,6.02-6.94,9.02-4.77,7.72-7.55,16.5-10.24,25-1.58,4.98-3.21,10.14-5.22,15.01-2.58,6.23-6.41,11.22-10.11,16.05-4.94,6.44-10.04,13.11-12.09,22.68-.85,3.99-1.2,8.04-1.36,12.07h.45Z"/>
              <path class="cls-30" d="M337.75,288c.04-1.28,.06-2.57,.09-3.86,.12-6,.24-12.2,1.44-18.24,1.81-9.06,6.3-15.61,10.64-21.93,3.27-4.77,6.65-9.7,8.95-15.72,1.65-4.33,3.03-8.87,4.36-13.27,2.59-8.55,5.28-17.39,10.08-25.07,1.79-2.86,3.97-5.65,6.67-8.52,2.92-3.12,6.15-5.98,9.27-8.75,3.99-3.53,7.76-6.87,10.91-10.69,2.65-3.22,4.16-6.48,4.87-10.56,.37-2.09,.45-4.16,.55-6.35,.19-4.49,.39-9.14,3.09-14.35,4.19-8.04,16.14-19.64,22.8-24.58,.72-.53,1.45-.96,2.17-1.36v-.49c-.82,.43-1.63,.9-2.44,1.51-6.69,4.97-18.71,16.63-22.93,24.73-2.75,5.3-2.95,9.99-3.14,14.53-.09,2.17-.18,4.23-.54,6.29-.7,4.01-2.18,7.21-4.78,10.37-3.13,3.79-6.89,7.12-10.86,10.64-3.13,2.77-6.37,5.64-9.3,8.78-2.72,2.89-4.91,5.7-6.72,8.59-4.83,7.72-7.53,16.59-10.13,25.17-1.33,4.38-2.71,8.92-4.35,13.24-2.28,5.98-5.65,10.89-8.9,15.63-4.36,6.36-8.88,12.94-10.7,22.09-1.21,6.08-1.33,12.3-1.45,18.32-.03,1.3-.05,2.59-.09,3.87h.45Z"/>
              <path class="cls-25" d="M334.58,288c.96-5.06,1.15-10.36,1.33-15.83,.18-5.39,.37-10.96,1.37-16.41,1.59-8.65,5.49-15.11,9.26-21.36,2.82-4.68,5.74-9.52,7.74-15.29,1.29-3.74,2.41-7.64,3.5-11.4,2.49-8.66,5.06-17.61,9.95-25.31,1.74-2.75,3.85-5.39,6.44-8.09,3.01-3.15,6.37-5.98,9.61-8.71,3.68-3.11,7.16-6.04,10.16-9.38,2.67-2.98,4.3-5.99,5.3-9.77,.55-2.08,.8-4.16,1.07-6.36,.5-4.13,1.02-8.39,3.58-13.16,4.24-7.88,15.18-18.95,21.24-23.96,1.83-1.51,3.79-2.48,5.65-3.3,.96-.43,1.92-.79,2.87-1.13v-.46c-1.01,.35-2.03,.74-3.05,1.2-1.88,.84-3.88,1.82-5.75,3.37-6.09,5.02-17.08,16.15-21.35,24.08-2.6,4.84-3.12,9.14-3.63,13.3-.27,2.19-.52,4.25-1.06,6.31-.98,3.71-2.58,6.67-5.21,9.59-2.97,3.32-6.44,6.24-10.11,9.34-3.25,2.75-6.62,5.58-9.64,8.75-2.61,2.72-4.74,5.39-6.5,8.16-4.92,7.75-7.51,16.73-10,25.42-1.08,3.76-2.2,7.64-3.49,11.38-1.98,5.73-4.89,10.55-7.7,15.21-3.79,6.28-7.71,12.78-9.31,21.5-1.01,5.48-1.2,11.07-1.38,16.47-.18,5.48-.37,10.78-1.34,15.84h.45Z"/>
              <path class="cls-22" d="M327.58,288c.36-.55,.7-1.11,1.03-1.69,4.59-8.02,5-16.96,5.43-26.44,.22-4.73,.44-9.62,1.23-14.41,1.37-8.22,4.68-14.58,7.88-20.74,2.38-4.57,4.83-9.3,6.53-14.8,.94-3.05,1.79-6.21,2.61-9.25,2.4-8.93,4.88-18.16,10.01-25.98,1.22-1.86,2.66-3.71,4.28-5.51,.63-.7,1.31-1.42,2.02-2.13,3.06-3.07,6.5-5.79,9.82-8.42,3.47-2.74,6.74-5.34,9.62-8.29,2.19-2.25,3.75-4.54,4.9-7.2,.22-.51,.43-1.06,.67-1.73,.71-2.05,1.13-4.11,1.56-6.29,.75-3.74,1.52-7.61,3.92-11.92,4.37-7.84,14.42-18.53,19.73-23.42,1.68-1.55,3.51-2.59,5.09-3.44,1.89-1.02,3.78-1.79,5.61-2.55,1.35-.56,2.74-1.14,4.13-1.81v-.48c-1.45,.71-2.89,1.31-4.3,1.89-1.84,.76-3.74,1.54-5.65,2.57-1.61,.87-3.46,1.92-5.18,3.51-5.33,4.92-15.42,15.65-19.82,23.53-2.43,4.36-3.21,8.26-3.97,12.04-.43,2.17-.84,4.21-1.55,6.23-.23,.66-.44,1.2-.66,1.71-1.13,2.61-2.66,4.86-4.82,7.07-2.86,2.93-6.12,5.52-9.58,8.25-3.33,2.64-6.77,5.36-9.85,8.45-.72,.72-1.4,1.44-2.04,2.14-1.64,1.82-3.09,3.69-4.32,5.57-5.17,7.88-7.66,17.14-10.07,26.1-.82,3.04-1.66,6.19-2.6,9.24-1.68,5.46-4.13,10.18-6.5,14.73-3.21,6.19-6.54,12.58-7.92,20.87-.79,4.82-1.02,9.72-1.24,14.46-.43,9.42-.85,18.32-5.38,26.25-.37,.65-.77,1.28-1.17,1.9h.53Z"/>
              <path class="cls-20" d="M310.07,288c6.41-2.99,12.14-7.42,16.13-13.92,4.91-7.97,5.43-17.02,5.99-26.6,.23-4.04,.48-8.22,1.07-12.33,1.13-7.81,3.86-14.1,6.5-20.18,1.93-4.45,3.92-9.05,5.31-14.25,.61-2.3,1.19-4.65,1.75-6.93,2.27-9.27,4.62-18.85,10.04-26.82,1.2-1.77,2.61-3.52,4.19-5.2,.62-.66,1.28-1.33,1.98-1.99,3.12-3,6.65-5.59,10.05-8.1,3.24-2.39,6.3-4.65,9.05-7.22,2.15-2.01,3.81-4.15,5.08-6.52,.29-.54,.53-1.08,.76-1.58,.92-2.05,1.52-4.13,2.16-6.34,.96-3.32,1.96-6.76,4.16-10.55,4.55-7.85,13.59-18.08,18.22-22.89,1.45-1.51,3.03-2.6,4.53-3.58,1.67-1.1,3.36-1.99,4.99-2.86,2.12-1.12,4.3-2.28,6.47-3.91,1.66-1.24,3.4-2.6,5.15-4.09v-.57c-1.84,1.58-3.67,3.02-5.42,4.32-2.14,1.6-4.32,2.75-6.42,3.87-1.64,.87-3.33,1.77-5.02,2.88-1.52,1-3.12,2.1-4.6,3.65-4.64,4.82-13.72,15.09-18.29,22.98-2.22,3.84-3.23,7.3-4.19,10.65-.64,2.19-1.23,4.26-2.14,6.28-.22,.5-.47,1.03-.75,1.55-1.25,2.34-2.88,4.43-4.99,6.41-2.73,2.56-5.78,4.81-9.01,7.19-3.42,2.52-6.95,5.13-10.09,8.14-.7,.67-1.37,1.34-1.99,2.01-1.59,1.7-3.02,3.46-4.23,5.25-5.46,8.04-7.82,17.65-10.1,26.96-.56,2.27-1.13,4.62-1.75,6.92-1.38,5.17-3.37,9.76-5.29,14.19-2.65,6.11-5.38,12.42-6.52,20.29-.6,4.13-.84,8.31-1.08,12.36-.55,9.53-1.07,18.53-5.92,26.41-4.13,6.7-10.13,11.18-16.81,14.14h1.06Z"/>
              <path class="cls-19" d="M185.23,288c6.93-5.17,14.66-9.36,23.52-11.78,16.28-4.44,32.3-1.91,47.79,.54,4.32,.68,8.39,1.33,12.5,1.83,15.09,1.83,42.27,2.08,54.76-16.74,5.32-8.02,5.94-17.3,6.6-27.13,.22-3.23,.44-6.58,.85-9.87,.91-7.43,3.05-13.66,5.12-19.69,1.48-4.3,3-8.75,4.09-13.64,.32-1.44,.63-2.88,.94-4.32,2.09-9.72,4.25-19.76,10.01-27.94,1.18-1.68,2.56-3.33,4.1-4.89,.61-.63,1.26-1.25,1.93-1.86,3.19-2.91,6.81-5.38,10.31-7.76,3.01-2.05,5.84-3.98,8.46-6.18,2.14-1.81,3.86-3.72,5.25-5.85,.31-.47,.58-.94,.85-1.42,1.2-2.1,2.05-4.28,2.95-6.58,1.11-2.84,2.26-5.78,4.2-8.99,5.07-8.4,14.07-19.24,16.72-22.37,1.24-1.47,2.58-2.6,3.97-3.72,1.46-1.18,2.93-2.2,4.36-3.18,1.84-1.26,3.74-2.57,5.61-4.25,4.37-3.92,9.37-8.79,13.5-15.23v-.82c-.04,.06-.07,.13-.11,.2-4.15,6.6-9.25,11.56-13.69,15.54-1.85,1.66-3.74,2.96-5.57,4.21-1.44,.98-2.92,2-4.39,3.2-1.4,1.14-2.77,2.29-4.03,3.78-2.65,3.13-11.67,14-16.75,22.42-1.96,3.24-3.11,6.2-4.23,9.05-.9,2.29-1.74,4.45-2.92,6.53-.27,.47-.54,.94-.84,1.4-1.37,2.09-3.06,3.97-5.17,5.75-2.59,2.19-5.42,4.12-8.42,6.15-3.51,2.39-7.15,4.87-10.36,7.8-.67,.61-1.33,1.24-1.95,1.87-1.55,1.58-2.95,3.25-4.15,4.95-5.82,8.25-7.99,18.34-10.08,28.09-.31,1.44-.62,2.88-.94,4.32-1.09,4.86-2.61,9.3-4.08,13.59-2.08,6.05-4.22,12.31-5.14,19.78-.41,3.31-.63,6.66-.85,9.9-.66,9.77-1.28,19.01-6.53,26.93-12.36,18.63-39.34,18.36-54.33,16.55-4.1-.5-8.17-1.15-12.49-1.83-15.54-2.46-31.61-5-47.98-.53-9.12,2.49-17.05,6.83-24.13,12.19h.73Z"/>
              <path class="cls-28" d="M164.13,288c10.63-12.97,23.24-24.68,40.48-29.19,16.63-4.35,33.09-.87,49.01,2.49,3.84,.81,7.81,1.65,11.65,2.34,15.27,2.72,42.86,4.53,56.13-14.02,5.85-8.18,6.55-17.9,7.29-28.18,.16-2.26,.33-4.59,.55-6.9,.69-7.11,2.25-13.36,3.76-19.4,1.02-4.09,2.07-8.32,2.86-12.82l.23-1.3c1.81-10.33,3.68-21.01,9.89-29.48,1.17-1.59,2.52-3.13,4.01-4.58,.59-.57,1.22-1.15,1.88-1.72,3.27-2.82,7.01-5.15,10.63-7.39,2.63-1.63,5.36-3.33,7.81-5.16,2.14-1.61,3.92-3.3,5.43-5.17,.32-.4,.61-.79,.95-1.26,1.62-2.26,2.83-4.66,4.11-7.21,1.13-2.24,2.3-4.56,3.87-7.05,4.35-6.91,10.76-15.77,15.2-21.84,1.12-1.53,2.34-2.77,3.41-3.87,1.24-1.26,2.51-2.4,3.74-3.5,1.56-1.4,3.18-2.85,4.76-4.58,3.82-4.19,8.23-9.33,11.94-15.75,4.51-7.8,7.18-16.64,9.75-25.18,.05-.17,.11-.34,.16-.51v-1.52c-.19,.64-.39,1.28-.58,1.91-2.57,8.52-5.22,17.34-9.71,25.1-3.69,6.39-8.08,11.51-11.89,15.68-1.56,1.71-3.17,3.15-4.72,4.55-1.23,1.1-2.51,2.25-3.76,3.52-1.09,1.11-2.32,2.36-3.45,3.92-4.45,6.07-10.86,14.94-15.22,21.86-1.58,2.51-2.75,4.83-3.89,7.09-1.28,2.53-2.48,4.92-4.08,7.15-.33,.47-.61,.85-.93,1.24-1.49,1.84-3.24,3.51-5.35,5.09-2.44,1.83-5.15,3.51-7.78,5.14-3.63,2.25-7.38,4.59-10.68,7.43-.67,.57-1.31,1.16-1.9,1.74-1.51,1.47-2.88,3.03-4.06,4.63-6.27,8.54-8.15,19.27-9.97,29.65l-.23,1.3c-.79,4.48-1.84,8.71-2.86,12.79-1.51,6.06-3.07,12.32-3.77,19.46-.23,2.31-.39,4.65-.56,6.91-.73,10.22-1.42,19.88-7.21,27.97-13.13,18.35-40.52,16.55-55.68,13.84-3.83-.69-7.8-1.53-11.64-2.34-15.97-3.38-32.48-6.87-49.22-2.49-17.49,4.57-30.22,16.46-40.93,29.6h.57Z"/>
              <path class="cls-21" d="M149.35,288c12.54-19.34,26.95-40.55,51.13-46.6,16.93-4.24,33.79,.21,50.09,4.51,3.6,.95,7.33,1.93,10.95,2.79,12.41,2.91,42.87,7.64,57.5-11.3,6.62-8.57,7.31-19.07,8.04-30.18,.06-.99,.13-1.99,.2-2.98,.5-7.1,1.49-13.65,2.45-19.98,.54-3.6,1.11-7.32,1.58-11.13,1.39-11.21,3.05-21.16,9.29-29.29,1.15-1.5,2.46-2.93,3.92-4.27,.58-.53,1.19-1.06,1.83-1.58,3.38-2.74,7.27-4.91,11.03-7.01,2.37-1.32,4.81-2.69,7.07-4.17,2.17-1.42,4-2.89,5.6-4.49,.37-.37,.71-.74,1.04-1.11,2.37-2.62,4.18-5.54,6.1-8.64,.86-1.38,1.74-2.81,2.73-4.3,4.53-6.85,9.78-15.02,13.7-21.31,.92-1.48,1.9-2.77,2.85-4.01,1.03-1.35,2.09-2.62,3.12-3.85,1.28-1.54,2.61-3.13,3.89-4.89,3.18-4.37,6.87-9.66,10.12-15.87,3.97-7.58,6.72-15.88,9.38-23.92,1.16-3.52,2.37-7.15,3.65-10.65l1.36-3.74c1.87-5.13,3.77-10.35,5.69-15.59v-1.28c-2.06,5.62-4.11,11.22-6.11,16.73l-1.36,3.74c-1.28,3.5-2.49,7.14-3.65,10.66-2.65,8.02-5.4,16.31-9.35,23.85-3.24,6.18-6.92,11.47-10.09,15.82-1.28,1.75-2.6,3.34-3.87,4.87-1.03,1.23-2.09,2.51-3.13,3.86-.96,1.26-1.95,2.55-2.88,4.05-3.92,6.29-9.16,14.46-13.69,21.3-.99,1.49-1.87,2.93-2.73,4.31-1.91,3.08-3.71,5.99-6.05,8.58-.33,.36-.66,.73-1.02,1.09-1.58,1.58-3.39,3.03-5.53,4.43-2.25,1.47-4.69,2.83-7.05,4.15-3.78,2.11-7.68,4.29-11.09,7.05-.65,.52-1.27,1.06-1.86,1.6-1.47,1.35-2.81,2.81-3.97,4.32-6.31,8.22-7.98,18.22-9.37,29.49-.47,3.81-1.04,7.53-1.58,11.12-.96,6.34-1.95,12.89-2.45,20.01-.07,1-.14,1.99-.2,2.98-.72,11.05-1.4,21.48-7.95,29.95-14.47,18.74-44.71,14.03-57.03,11.14-3.61-.85-7.33-1.83-10.93-2.78-16.36-4.32-33.28-8.78-50.32-4.51-24.44,6.12-38.92,27.55-51.54,47.01h.52Z"/>
              <path class="cls-27" d="M137.13,288c1-1.49,1.93-2.96,2.8-4.41,1.5-2.55,3.04-5.22,4.53-7.81,12.31-21.4,26.25-45.66,51.89-51.79,17.18-4.11,34.4,1.33,51.06,6.58,3.4,1.07,6.92,2.18,10.35,3.18,12.51,3.62,43.3,10.04,58.86-8.58,7.19-8.6,8.18-19.68,8.63-31.24l.05-1.31c.38-9.85,.74-19.16,1.38-28.7,.66-9.81,2.15-19.96,8.46-27.8,1.13-1.4,2.42-2.73,3.83-3.96,.56-.49,1.16-.97,1.79-1.44,3.52-2.66,7.6-4.66,11.55-6.6,2.06-1.01,4.19-2.06,6.21-3.18,2.22-1.24,4.11-2.49,5.77-3.81,.39-.31,.76-.63,1.13-.95,3.7-3.23,6.45-7.01,9.66-11.63,3.76-5.39,7.86-12.39,12.19-20.79,.73-1.41,1.48-2.74,2.21-4.02l.08-.15c.83-1.46,1.69-2.89,2.52-4.27,.99-1.65,2.01-3.35,3-5.13,2.54-4.55,5.52-10.01,8.3-15.99,3.43-7.36,6.26-15.14,9.01-22.66,1.21-3.31,2.45-6.73,3.73-10.06,2.74-7.16,5.49-14.33,8.23-21.49h-.47c-2.73,7.11-5.45,14.23-8.17,21.34-1.28,3.33-2.53,6.75-3.73,10.06-2.74,7.52-5.57,15.29-9,22.63-2.78,5.97-5.75,11.42-8.29,15.96-.99,1.77-2.01,3.47-3,5.12-.83,1.38-1.69,2.82-2.52,4.28l-.08,.15c-.73,1.29-1.49,2.62-2.22,4.03-4.32,8.39-8.41,15.36-12.16,20.74-3.2,4.59-5.93,8.35-9.59,11.55-.36,.32-.73,.63-1.11,.94-1.64,1.31-3.51,2.54-5.71,3.77-2.01,1.12-4.13,2.16-6.19,3.17-3.97,1.95-8.07,3.96-11.63,6.65-.63,.48-1.24,.97-1.81,1.46-1.43,1.24-2.74,2.59-3.88,4.01-6.39,7.93-7.89,18.16-8.55,28.03-.64,9.54-1,18.85-1.38,28.71l-.05,1.31c-.44,11.48-1.43,22.49-8.53,30.99-15.39,18.42-45.96,12.03-58.39,8.44-3.42-.99-6.94-2.1-10.34-3.18-16.71-5.27-34-10.73-51.31-6.59-25.82,6.17-39.82,30.52-52.17,52-1.49,2.58-3.02,5.26-4.52,7.8-.91,1.52-1.89,3.07-2.94,4.63h.53Z"/>
              <path class="cls-23" d="M12.32,288c2.15-.39,4.37-.53,6.66-.36,.95,.07,1.86,.2,2.77,.36h2.12c-1.55-.38-3.16-.65-4.85-.78-2.97-.23-5.92,.04-8.78,.78h2.08Z"/>
              <path class="cls-26" d="M124.18,288c5.11-5.89,9.71-12.59,13.42-19.68,1.24-2.36,2.47-4.78,3.72-7.21,11.66-22.78,24.87-48.6,50.89-54.52,17.39-3.96,34.95,2.47,51.92,8.69,3.24,1.19,6.59,2.41,9.86,3.54,7.97,2.74,20.06,5.9,32.43,5.44,12.06-.45,21.41-4.25,27.79-11.3,10.43-11.51,9.42-27.91,8.44-43.78-1.08-17.44-2.09-33.91,10.79-44.39,4.08-3.32,9.15-5.44,14.04-7.5,3.74-1.57,7.61-3.19,11.06-5.35,12.26-7.67,18.19-20.7,24.14-35.69,4.89-12.19,9.89-24.58,14.72-36.57,5.25-13.01,10.64-26.36,15.97-39.67h-.48c-5.31,13.26-10.68,26.56-15.91,39.52-4.83,11.98-9.83,24.37-14.72,36.57-5.93,14.92-11.82,27.89-23.97,35.48-3.42,2.14-7.27,3.75-11,5.32-4.93,2.07-10.02,4.2-14.15,7.56-13.05,10.62-11.98,27.97-10.94,44.74,.97,15.78,1.98,32.1-8.33,43.47-16.83,18.57-49.98,9.08-59.74,5.73-3.26-1.12-6.61-2.35-9.85-3.53-17.04-6.24-34.66-12.7-52.19-8.7-26.22,5.97-39.48,31.89-51.18,54.75-1.25,2.44-2.48,4.85-3.72,7.21-3.75,7.17-8.42,13.94-13.6,19.87h.58Z"/>
              <path class="cls-24" d="M18.32,275c9.84,.67,17.23,6.27,24.47,13h.64c-7.4-6.92-14.94-12.74-25.08-13.43-6.52-.44-12.83,1.57-18.35,5.82v.55c5.5-4.33,11.81-6.39,18.32-5.94Z"/>
              <path class="cls-48" d="M105.83,288c8.58-7.94,15.55-17.76,20.19-26.57,1.15-2.19,2.3-4.42,3.47-6.67,3.98-7.7,8.09-15.67,12.79-23.03,11.01-17.21,22.8-26.75,37.11-30.02,16.89-3.86,33.97,2.23,50.48,8.11,3.15,1.12,6.41,2.29,9.59,3.35,7.76,2.59,19.53,5.59,31.5,5.1,11.71-.46,20.82-4.12,27.09-10.87,10.33-11.1,9.73-26.93,9.16-42.25-.61-16.14-1.19-31.39,9.85-41.68,.53-.5,1.09-.98,1.66-1.44,3.96-3.18,8.81-5.26,13.51-7.28,3.26-1.4,6.62-2.84,9.69-4.65,.4-.24,.79-.48,1.18-.72,1.55-.99,3.07-2.11,4.49-3.34,9.12-7.84,14.28-19.31,19.18-31.36,3.2-7.79,6.99-17.03,10.82-26.49,1.11-2.74,2.22-5.48,3.33-8.22,5.33-13.12,10.79-26.59,15.72-39.98h-.47c-4.91,13.34-10.35,26.75-15.66,39.83-1.11,2.74-2.23,5.48-3.34,8.22-3.83,9.46-7.62,18.7-10.82,26.49-4.88,12-10.02,23.42-19.07,31.19-1.41,1.21-2.9,2.32-4.44,3.3-.39,.25-.78,.48-1.17,.71-3.05,1.79-6.4,3.23-9.64,4.62-4.72,2.03-9.61,4.12-13.61,7.34-.58,.47-1.15,.96-1.69,1.46-11.18,10.43-10.58,26.48-9.99,42.01,.58,15.23,1.17,30.98-9.04,41.94-16.49,17.74-48.66,8.81-58.12,5.65-3.18-1.06-6.44-2.22-9.59-3.34-16.58-5.91-33.72-12.01-50.74-8.13-14.43,3.3-26.31,12.9-37.38,30.21-4.71,7.38-8.83,15.35-12.81,23.06-1.16,2.25-2.31,4.48-3.47,6.67-4.69,8.89-11.75,18.82-20.44,26.77h.65Z"/>
              <path class="cls-43" d="M10.22,269.49c11.58,.74,19.71,8.32,28.33,16.34,.77,.72,1.55,1.44,2.33,2.16h.65c-.9-.82-1.78-1.65-2.67-2.47-8.68-8.08-16.87-15.71-28.61-16.46-3.51-.22-6.96,.29-10.25,1.46v.46c3.29-1.19,6.73-1.72,10.22-1.49Z"/>
              <path class="cls-46" d="M85.15,288c12.72-8.26,23.08-21.77,29.29-33.47,1.06-2,2.12-4.03,3.19-6.08,3.92-7.52,7.98-15.29,12.62-22.47,10.8-16.68,22.34-25.94,36.32-29.15,16.39-3.75,32.99,1.99,49.04,7.54,3.07,1.06,6.24,2.16,9.33,3.16,11.84,3.84,41.08,10.96,56.97-5.67,10.24-10.68,10.05-25.95,9.87-40.72-.18-14.95-.37-30.41,10.62-40.46,.52-.48,1.07-.94,1.63-1.39,3.83-3.03,8.47-5.07,12.96-7.04,3.21-1.41,6.53-2.87,9.55-4.69,.39-.23,.77-.47,1.15-.71,1.5-.97,2.96-2.07,4.35-3.27,8.9-7.71,14-18.79,18.86-30.42,4.23-10.04,7.64-18.25,10.72-25.85,.98-2.41,1.96-4.82,2.95-7.24,5.38-13.17,10.88-26.69,15.35-40.07h-.47c-4.46,13.33-9.94,26.8-15.3,39.92-.99,2.41-1.97,4.83-2.95,7.24-3.08,7.6-6.49,15.81-10.72,25.84-4.84,11.58-9.91,22.61-18.74,30.26-1.37,1.18-2.81,2.27-4.3,3.23-.37,.24-.75,.48-1.13,.71-3,1.8-6.3,3.25-9.5,4.66-4.52,1.99-9.19,4.04-13.06,7.1-.57,.45-1.13,.93-1.65,1.41-11.14,10.18-10.95,25.73-10.76,40.78,.18,14.68,.36,29.86-9.75,40.42-15.71,16.45-44.75,9.37-56.5,5.56-3.09-1-6.26-2.1-9.32-3.16-16.11-5.57-32.77-11.34-49.29-7.55-14.1,3.23-25.73,12.55-36.6,29.34-4.65,7.2-8.71,14.98-12.64,22.51-1.07,2.05-2.13,4.08-3.19,6.08-6.27,11.81-16.79,25.48-29.69,33.66h.79Z"/>
              <path class="cls-47" d="M29.73,279.3c3.36,3.01,6.79,6.06,10.47,8.7h.75c-3.85-2.7-7.41-5.89-10.91-9.01-8.1-7.25-16.48-14.75-27.87-15.42-.73-.04-1.45-.05-2.16-.03v.43c.7-.02,1.41-.01,2.13,.03,11.23,.67,19.18,7.78,27.6,15.31Z"/>
              <path class="cls-42" d="M362.7,0c-3.99,13.32-9.54,26.87-14.94,40.06-.85,2.07-1.69,4.13-2.53,6.19-3.08,7.55-6.45,15.56-10.62,25.19-4.79,11.17-9.8,21.81-18.42,29.33-1.32,1.15-2.72,2.22-4.16,3.17-.36,.24-.73,.47-1.09,.7-2.96,1.81-6.22,3.28-9.37,4.71-4.31,1.94-8.76,3.95-12.49,6.86-.56,.43-1.1,.89-1.62,1.36-11.08,9.93-11.31,24.98-11.54,39.54-.22,14.13-.44,28.75-10.46,38.91-15.38,15.64-43.5,9.04-54.88,5.47-3-.94-6.08-1.97-9.06-2.97-15.65-5.24-31.84-10.65-47.85-6.98-13.78,3.16-25.15,12.21-35.81,28.46-4.59,7.01-8.59,14.59-12.45,21.92-.98,1.86-1.95,3.7-2.92,5.52-7.94,14.82-22.66,32.65-40.15,38.25-7.15,2.28-14.21,2.28-20.98-.01-7.68-2.59-14.01-8-20.12-13.23-6.43-5.5-13.05-11.16-21.22-13.41v.43c7.93,2.19,14.28,7.62,20.93,13.3,6.15,5.26,12.51,10.7,20.27,13.32,6.87,2.32,14.02,2.32,21.26,.01,17.62-5.64,32.42-23.57,40.4-38.46,.97-1.81,1.94-3.66,2.92-5.52,3.86-7.32,7.85-14.9,12.43-21.89,10.59-16.15,21.88-25.14,35.54-28.27,15.89-3.65,32.01,1.75,47.6,6.96,2.98,1,6.06,2.03,9.07,2.97,11.46,3.59,39.79,10.24,55.34-5.58,10.14-10.28,10.37-24.98,10.58-39.19,.22-14.47,.45-29.43,11.39-39.23,.51-.46,1.05-.91,1.6-1.34,3.69-2.88,8.12-4.87,12.4-6.81,3.17-1.43,6.44-2.9,9.42-4.73,.37-.23,.74-.46,1.11-.7,1.45-.96,2.87-2.04,4.2-3.2,8.69-7.58,13.72-18.27,18.53-29.49,4.17-9.64,7.55-17.64,10.62-25.2,.84-2.06,1.69-4.13,2.53-6.19,5.43-13.24,11-26.84,14.99-40.22h-.46Z"/>
              <path class="cls-41" d="M345.9,0c-3.51,13.32-9.11,26.98-14.58,40.27-.7,1.7-1.39,3.4-2.09,5.09-3.02,7.38-6.46,15.41-10.52,24.54-4.73,10.74-9.68,21-18.09,28.4-1.28,1.13-2.64,2.18-4.02,3.1-.35,.24-.7,.46-1.06,.69-2.92,1.83-6.14,3.32-9.26,4.76-4.09,1.89-8.33,3.85-11.91,6.61-.55,.42-1.09,.86-1.59,1.3-11.03,9.68-11.69,24.23-12.32,38.3-.61,13.59-1.24,27.64-11.17,37.4-15.05,14.84-42.26,8.71-53.27,5.38-2.91-.88-5.9-1.84-8.79-2.78-15.19-4.9-30.89-9.97-46.41-6.4-13.45,3.1-24.58,11.86-35.03,27.58-4.53,6.83-8.47,14.22-12.29,21.37-.88,1.66-1.76,3.3-2.64,4.93-7.82,14.47-22.19,31.88-39.06,37.36-6.75,2.18-13.43,2.26-19.88,.22-7.43-2.34-13.6-7.37-19.58-12.23-3.95-3.22-7.97-6.48-12.38-8.98v.5c4.29,2.47,8.23,5.66,12.09,8.81,6,4.89,12.21,9.95,19.72,12.31,6.54,2.06,13.32,1.98,20.16-.22,14.44-4.69,29.14-18.73,39.31-37.57,.88-1.62,1.75-3.27,2.64-4.93,3.81-7.14,7.74-14.52,12.27-21.33,10.38-15.62,21.42-24.33,34.75-27.4,15.39-3.54,31.03,1.51,46.16,6.39,2.89,.93,5.88,1.9,8.8,2.78,11.08,3.35,38.5,9.52,53.72-5.49,10.05-9.87,10.68-24.01,11.29-37.68,.63-13.98,1.27-28.44,12.17-38,.49-.43,1.02-.87,1.57-1.29,3.55-2.73,7.76-4.67,11.83-6.55,3.13-1.45,6.36-2.94,9.31-4.79,.36-.23,.72-.46,1.07-.69,1.4-.94,2.76-2,4.06-3.14,8.48-7.46,13.64-18.19,18.2-28.55,4.06-9.13,7.51-17.16,10.53-24.55,.69-1.69,1.39-3.39,2.09-5.09,5.48-13.34,11.11-27.04,14.62-40.43h-.46Z"/>
              <path class="cls-44" d="M329.07,0c-3.01,13.34-8.69,27.13-14.22,40.56-.54,1.3-1.07,2.6-1.6,3.9-2.96,7.22-6.37,15.04-10.42,23.89-4.49,9.91-9.56,20.19-17.77,27.47-1.24,1.1-2.54,2.12-3.88,3.04-.33,.23-.67,.46-1.02,.68-2.88,1.86-6.08,3.37-9.16,4.84-3.87,1.84-7.88,3.74-11.32,6.34-.54,.41-1.06,.83-1.55,1.25-10.98,9.42-12.06,23.47-13.1,37.05-1,13.05-2.03,26.55-11.87,35.9-14.72,14.04-41.02,8.38-51.65,5.29-2.82-.82-5.72-1.72-8.52-2.59-14.73-4.57-29.96-9.29-44.97-5.83-13.12,3.03-24,11.52-34.24,26.71-4.48,6.65-8.37,13.86-12.13,20.83-.78,1.45-1.56,2.9-2.34,4.33-9.97,18.28-24.17,31.92-37.98,36.47-6.34,2.08-12.66,2.24-18.78,.46-7.19-2.09-13.22-6.74-19.04-11.24-1.16-.9-2.33-1.8-3.51-2.68v.54c1.09,.82,2.16,1.65,3.23,2.47,5.86,4.52,11.92,9.2,19.19,11.32,6.21,1.8,12.62,1.65,19.06-.46,13.91-4.59,28.2-18.3,38.23-36.68,.78-1.43,1.56-2.87,2.34-4.33,3.76-6.96,7.64-14.16,12.11-20.79,10.17-15.09,20.96-23.52,33.97-26.52,14.89-3.44,30.06,1.26,44.73,5.82,2.8,.87,5.7,1.77,8.53,2.59,10.7,3.11,37.2,8.81,52.09-5.4,9.96-9.46,11-23.04,12-36.17,1.03-13.5,2.1-27.45,12.95-36.76,.49-.42,1-.83,1.53-1.23,3.4-2.57,7.39-4.46,11.24-6.29,3.1-1.47,6.3-2.99,9.21-4.86,.35-.22,.69-.45,1.03-.69,1.35-.93,2.67-1.96,3.92-3.07,8.27-7.34,13.36-17.67,17.87-27.61,4.05-8.86,7.46-16.68,10.43-23.91,.53-1.3,1.07-2.6,1.61-3.9,5.55-13.47,11.25-27.31,14.26-40.72h-.46Z"/>
              <path class="cls-38" d="M312.2,0c-2.49,13.37-8.25,27.33-13.85,40.9l-1.1,2.66c-2.92,7.09-6.3,14.69-10.32,23.24-4.43,9.5-9.43,19.36-17.44,26.54-1.2,1.08-2.46,2.08-3.74,2.98-.32,.23-.65,.45-.98,.67-2.86,1.89-6.03,3.43-9.09,4.93-3.65,1.78-7.42,3.62-10.7,6.05-.54,.4-1.05,.8-1.52,1.2-10.93,9.17-12.43,22.7-13.88,35.79-1.39,12.51-2.82,25.45-12.57,34.4-13.87,12.77-37.3,8.74-50.03,5.2-2.73-.76-5.54-1.59-8.24-2.39-14.27-4.24-29.02-8.62-43.53-5.25-12.8,2.97-23.43,11.18-33.46,25.83-4.44,6.48-8.28,13.52-12,20.32-.68,1.24-1.35,2.47-2.02,3.69-9.82,17.83-23.61,31.13-36.89,35.58-5.96,1.99-11.91,2.23-17.69,.69-4.8-1.26-9.09-3.69-13.16-6.43v.52c4.03,2.7,8.28,5.07,13.04,6.32,5.86,1.55,11.9,1.32,17.95-.7,13.38-4.48,27.27-17.86,37.14-35.78,.67-1.22,1.34-2.45,2.02-3.69,3.71-6.79,7.55-13.82,11.98-20.29,9.96-14.56,20.5-22.71,33.19-25.65,14.39-3.34,29.09,1.02,43.3,5.25,2.71,.8,5.51,1.64,8.25,2.4,12.82,3.56,36.43,7.61,50.46-5.3,9.86-9.06,11.31-22.08,12.7-34.67,1.44-13.01,2.94-26.45,13.73-35.51,.46-.39,.97-.79,1.5-1.18,3.25-2.41,7-4.24,10.63-6.01,3.07-1.5,6.25-3.05,9.14-4.95,.33-.22,.67-.45,.99-.68,1.29-.91,2.56-1.92,3.78-3.01,8.07-7.23,13.09-17.15,17.55-26.68,4.03-8.56,7.41-16.16,10.33-23.26l1.1-2.66c5.62-13.62,11.4-27.63,13.89-41.06h-.45Z"/>
              <path class="cls-37" d="M295.3,0c-1.94,13.41-7.77,27.53-13.46,41.27l-.58,1.4c-2.86,6.92-6.2,14.31-10.22,22.59-4.18,8.68-9.3,18.54-17.12,25.61-1.45,1.31-2.98,2.51-4.54,3.57-2.84,1.93-5.99,3.51-9.04,5.03-3.97,1.99-8.07,4.05-11.54,6.89-10.87,8.91-12.8,21.93-14.67,34.52-1.77,11.98-3.61,24.37-13.27,32.92-13.55,12-36.15,8.36-48.42,5.11-2.64-.7-5.35-1.46-7.97-2.2-13.81-3.9-28.08-7.94-42.1-4.68-12.48,2.91-22.86,10.83-32.67,24.95-4.4,6.32-8.2,13.18-11.87,19.81-.57,1.02-1.13,2.04-1.69,3.05-9.67,17.38-23.05,30.34-35.8,34.69-5.56,1.89-11.14,2.2-16.59,.93-1.29-.3-2.54-.71-3.76-1.16v.46c1.19,.44,2.4,.83,3.66,1.12,5.54,1.3,11.21,.98,16.84-.94,12.85-4.38,26.33-17.42,36.05-34.89,.56-1.01,1.13-2.03,1.69-3.05,3.67-6.63,7.46-13.48,11.85-19.78,9.75-14.02,20.04-21.9,32.4-24.77,13.89-3.24,28.11,.79,41.87,4.67,2.62,.74,5.33,1.51,7.97,2.2,12.35,3.27,35.12,6.93,48.84-5.21,9.77-8.66,11.62-21.12,13.41-33.18,1.85-12.51,3.77-25.45,14.51-34.25,3.43-2.81,7.51-4.86,11.45-6.84,3.06-1.53,6.22-3.12,9.09-5.06,1.58-1.07,3.12-2.28,4.59-3.61,7.88-7.13,13.02-17.03,17.22-25.74,4.02-8.29,7.37-15.69,10.23-22.61l.58-1.4c5.7-13.79,11.56-27.95,13.49-41.43h-.45Z"/>
              <path class="cls-45" d="M278.34,0c-1.42,13.68-7.54,28.47-13.08,41.79-2.8,6.74-6.11,13.91-10.11,21.92-4.14,8.34-9.21,17.82-16.92,24.79-1.41,1.28-2.9,2.45-4.41,3.49-2.76,1.9-5.81,3.47-8.76,5-3.83,1.98-7.78,4.02-11.16,6.79-10.53,8.64-12.88,21.01-15.14,32.98-2.17,11.47-4.42,23.33-14.03,31.49-13.21,11.25-34.99,7.98-46.8,5.03-2.55-.63-5.16-1.33-7.69-2.01-13.35-3.57-27.16-7.26-40.67-4.11-12.11,2.83-22.19,10.41-31.74,23.84-4.42,6.2-8.21,12.96-11.88,19.49l-1.38,2.47c-4.52,8.04-16.91,27.4-34.33,33.69-3.41,1.23-6.83,1.83-10.24,1.83v.43c3.46,0,6.94-.61,10.4-1.86,17.56-6.34,30.02-25.81,34.57-33.89l1.39-2.47c3.66-6.53,7.45-13.27,11.85-19.45,9.48-13.34,19.48-20.86,31.48-23.67,13.4-3.13,27.15,.54,40.44,4.1,2.53,.68,5.14,1.37,7.69,2.01,11.9,2.97,33.85,6.26,47.21-5.12,9.72-8.26,11.98-20.19,14.17-31.74,2.25-11.89,4.58-24.19,14.99-32.73,3.34-2.74,7.27-4.77,11.08-6.74,2.96-1.53,6.03-3.12,8.81-5.03,1.53-1.05,3.03-2.24,4.46-3.53,7.77-7.02,12.86-16.55,17.02-24.92,4.01-8.02,7.32-15.2,10.13-21.95,5.55-13.36,11.69-28.2,13.11-41.95h-.45Z"/>
              <path class="cls-33" d="M261.38,0c-.74,12.59-6.12,26.55-12.11,40.91-2.74,6.58-6.01,13.53-10.01,21.25-4.4,8.58-9.47,17.41-16.72,23.97-1.38,1.25-2.82,2.4-4.28,3.41-2.68,1.87-5.63,3.44-8.49,4.97-3.69,1.97-7.5,4-10.77,6.69-10.18,8.37-12.93,20.08-15.59,31.41-2.69,11.47-5.24,22.31-14.81,30.09-12.86,10.5-33.83,7.6-45.19,4.94-2.46-.57-4.97-1.2-7.4-1.81-12.89-3.24-26.23-6.59-39.24-3.53-11.73,2.76-21.52,9.98-30.81,22.73-4.45,6.09-8.24,12.76-11.91,19.21l-1.05,1.84c-4.4,7.73-16.41,26.39-32.87,32.7-.04,.02-.09,.03-.14,.05v.46c.1-.04,.2-.07,.3-.1,16.59-6.36,28.67-25.12,33.09-32.89l1.05-1.84c3.66-6.44,7.45-13.1,11.88-19.17,9.22-12.66,18.92-19.83,30.55-22.56,12.9-3.03,26.18,.31,39.02,3.53,2.43,.61,4.95,1.24,7.41,1.82,11.44,2.68,32.57,5.6,45.58-5.03,9.69-7.87,12.37-19.28,14.96-30.32,2.65-11.26,5.38-22.91,15.45-31.18,3.24-2.66,7.03-4.68,10.7-6.64,2.87-1.53,5.83-3.11,8.54-4.99,1.48-1.03,2.93-2.19,4.33-3.45,7.3-6.6,12.39-15.48,16.81-24.09,4-7.73,7.27-14.7,10.02-21.28,6.01-14.4,11.4-28.41,12.14-41.07h-.45Z"/>
              <path class="cls-35" d="M244.35,0c-.18,12.78-5.69,27.18-11.08,40.03-2.68,6.4-5.92,13.13-9.9,20.58-4.35,8.2-9.36,16.67-16.52,23.15-1.34,1.21-2.74,2.33-4.15,3.34-2.6,1.84-5.46,3.41-8.22,4.93-3.55,1.95-7.21,3.97-10.39,6.58-9.82,8.08-12.97,19.13-16.02,29.82-3.12,10.96-6.08,21.32-15.63,28.71-11.89,9.27-30.25,7.76-43.57,4.85-2.36-.51-4.77-1.08-7.11-1.62-12.44-2.91-25.31-5.91-37.82-2.96-11.37,2.68-20.86,9.55-29.88,21.62-4.48,5.98-8.27,12.55-11.94,18.92l-.71,1.22c-4.06,7.03-11.5,18.22-21.42,25.85v.55c10.12-7.67,17.7-19.05,21.81-26.18l.71-1.22c3.66-6.35,7.45-12.92,11.92-18.87,8.95-11.98,18.36-18.8,29.62-21.45,12.41-2.93,25.22,.06,37.61,2.96,2.34,.55,4.75,1.11,7.11,1.62,13.41,2.93,31.92,4.45,43.95-4.93,9.66-7.48,12.77-18.39,15.78-28.93,3.03-10.63,6.16-21.61,15.87-29.61,3.15-2.59,6.79-4.6,10.32-6.54,2.77-1.53,5.64-3.1,8.26-4.96,1.43-1.01,2.84-2.15,4.19-3.37,7.2-6.52,12.24-15.03,16.61-23.27,3.99-7.47,7.23-14.21,9.91-20.62,5.4-12.89,10.93-27.34,11.11-40.19h-.44Z"/>
              <path class="cls-39" d="M227.3,0c.42,12.27-4.69,26.47-10.03,39.16-2.62,6.22-5.82,12.73-9.79,19.91-4.09,7.44-9.22,15.91-16.32,22.33-1.3,1.18-2.66,2.28-4.02,3.26-2.52,1.82-5.29,3.39-7.96,4.91-3.4,1.94-6.92,3.94-10,6.47-9.45,7.78-12.99,18.16-16.41,28.19-3.57,10.46-6.94,20.33-16.47,27.37-11.59,8.57-29.22,7.32-41.96,4.76-2.26-.45-4.57-.95-6.81-1.43-11.99-2.58-24.39-5.24-36.41-2.39-11.01,2.61-20.21,9.13-28.94,20.51-4.52,5.86-8.31,12.35-11.98,18.62l-.36,.61c-2.27,3.89-5.62,9.1-9.85,14.24v.74c4.08-4.92,7.53-10.14,10.23-14.77l.36-.61c3.66-6.26,7.45-12.73,11.95-18.57,8.67-11.3,17.79-17.76,28.69-20.35,11.93-2.83,24.27-.17,36.21,2.39,2.24,.48,4.55,.98,6.81,1.43,12.83,2.57,30.59,3.82,42.32-4.84,9.64-7.12,13.03-17.05,16.62-27.58,3.4-9.98,6.93-20.29,16.28-28,3.05-2.51,6.55-4.5,9.94-6.43,2.68-1.53,5.45-3.1,8-4.93,1.38-.99,2.75-2.1,4.06-3.29,7.14-6.46,12.3-14.97,16.41-22.44,3.98-7.2,7.19-13.72,9.81-19.95,5.36-12.72,10.48-26.97,10.06-39.32h-.44Z"/>
              <path class="cls-34" d="M210.23,0c1.06,12.63-4.41,27.53-8.95,38.28-2.55,6.04-5.72,12.33-9.68,19.24-4.03,7.07-9.09,15.15-16.12,21.51-1.27,1.15-2.58,2.22-3.9,3.18-2.45,1.79-5.11,3.36-7.69,4.88-3.26,1.92-6.63,3.91-9.61,6.36-9.04,7.46-12.94,17.14-16.71,26.5-4.03,9.99-7.83,19.43-17.4,26.09-11.23,7.87-28.14,6.89-40.34,4.67-2.16-.39-4.36-.82-6.5-1.23-11.54-2.25-23.48-4.57-35.01-1.82-10.51,2.51-19.67,8.85-28.01,19.4-3.85,4.85-7.16,10.16-10.3,15.42v.86c3.26-5.45,6.66-10.98,10.66-16.01,8.28-10.47,17.36-16.76,27.77-19.24,11.44-2.73,23.33-.41,34.82,1.82,2.14,.42,4.34,.84,6.5,1.23,12.3,2.23,29.33,3.21,40.69-4.75,9.68-6.74,13.5-16.23,17.55-26.28,3.75-9.31,7.63-18.94,16.59-26.33,2.95-2.43,6.3-4.41,9.55-6.32,2.59-1.52,5.27-3.1,7.73-4.91,1.33-.97,2.65-2.05,3.93-3.21,7.07-6.4,12.16-14.52,16.2-21.61,3.97-6.93,7.14-13.24,9.71-19.29,4.56-10.78,10.05-25.73,8.99-38.44h-.45Z"/>
              <path class="cls-36" d="M193.11,0c1.32,9.52-1.3,22.06-7.83,37.4-2.49,5.85-5.62,11.93-9.57,18.57-3.73,6.29-8.9,14.33-15.92,20.69-1.23,1.11-2.5,2.16-3.77,3.1-2.37,1.77-4.95,3.34-7.44,4.87-3.11,1.9-6.33,3.87-9.21,6.24-8.61,7.12-12.85,16.08-16.95,24.75-4.51,9.54-8.77,18.56-18.4,24.87-8.75,5.77-21.79,7.31-38.73,4.59-2.05-.33-4.15-.69-6.17-1.04-11.1-1.92-22.57-3.9-33.62-1.25-9.5,2.28-17.87,7.66-25.5,16.42v.68c7.66-8.92,16.06-14.39,25.61-16.68,10.95-2.63,22.38-.65,33.44,1.26,2.03,.35,4.12,.71,6.18,1.04,17.07,2.74,30.21,1.18,39.06-4.66,9.73-6.38,14.02-15.45,18.56-25.05,4.08-8.63,8.29-17.55,16.83-24.6,2.85-2.35,6.05-4.31,9.15-6.21,2.5-1.53,5.09-3.11,7.48-4.89,1.28-.95,2.56-2,3.8-3.13,7.06-6.39,12.26-14.47,16-20.79,3.96-6.66,7.1-12.75,9.6-18.62,6.55-15.38,9.18-27.97,7.87-37.56h-.45Z"/>
              <path class="cls-40" d="M175.98,0c2.32,11.57-2.13,25.88-6.69,36.52-2.43,5.67-5.52,11.53-9.47,17.9-3.37,5.47-8.66,13.47-15.72,19.87-1.19,1.08-2.42,2.1-3.64,3.02-2.3,1.75-4.79,3.33-7.2,4.86-2.96,1.88-6.03,3.83-8.79,6.11-8.14,6.74-12.67,14.96-17.06,22.91-5.03,9.13-9.79,17.76-19.53,23.74-8.49,5.21-20.98,6.73-37.12,4.5-1.94-.26-3.92-.56-5.83-.84-10.66-1.59-21.69-3.23-32.25-.68-4.48,1.08-8.69,2.84-12.69,5.3v.51c4.03-2.51,8.27-4.31,12.79-5.4,10.48-2.53,21.46-.89,32.08,.69,1.92,.28,3.9,.58,5.84,.84,16.25,2.24,28.84,.71,37.42-4.56,9.83-6.04,14.62-14.72,19.68-23.9,4.36-7.92,8.88-16.1,16.95-22.79,2.74-2.27,5.79-4.21,8.75-6.08,2.42-1.53,4.91-3.12,7.23-4.88,1.23-.93,2.46-1.96,3.67-3.05,7.1-6.43,12.42-14.47,15.8-19.96,3.95-6.39,7.06-12.27,9.49-17.96,4.57-10.68,9.04-25.02,6.73-36.69h-.45Z"/>
              <path class="cls-14" d="M158.81,0c3.24,12.09-1.85,27.12-5.52,35.65-2.38,5.52-5.46,11.18-9.44,17.32-4.71,7.32-9.34,13.12-14.13,17.73-.49,.47-.98,.93-1.49,1.39-1.17,1.06-2.36,2.05-3.53,2.96-2.26,1.75-4.69,3.36-7.04,4.91-2.82,1.86-5.73,3.78-8.39,5.98-7.58,6.28-12.3,13.69-16.86,20.86-5.55,8.73-10.8,16.97-20.66,22.58-8.36,4.75-20.12,6.21-35.95,4.45-1.77-.19-3.54-.41-5.32-.62-10.1-1.2-20.53-2.44-30.48-.15v.44c9.91-2.3,20.33-1.07,30.43,.13,1.78,.21,3.55,.42,5.32,.62,15.93,1.77,27.78,.29,36.23-4.51,9.96-5.66,15.23-13.95,20.82-22.73,4.54-7.14,9.24-14.53,16.77-20.76,2.64-2.19,5.54-4.1,8.35-5.96,2.35-1.56,4.79-3.17,7.06-4.93,1.19-.92,2.38-1.92,3.56-2.99,.51-.46,1.01-.93,1.5-1.4,4.82-4.64,9.47-10.46,14.2-17.81,3.99-6.16,7.08-11.84,9.47-17.38,3.68-8.55,8.78-23.61,5.57-35.81h-.46Z"/>
              <path class="cls-15" d="M141.58,0c4.25,12.42-1.39,28.08-4.29,34.77-2.32,5.35-5.4,10.83-9.4,16.74-4.59,6.8-9.2,12.37-14.08,17.03-.48,.46-.96,.91-1.45,1.35-1.13,1.03-2.29,2-3.42,2.91-2.23,1.76-4.6,3.4-6.91,4.99-2.66,1.83-5.4,3.72-7.95,5.82-6.94,5.74-11.75,12.3-16.4,18.64-6.16,8.4-11.97,16.32-22.07,21.59-10.79,5.62-25.02,5.21-34.78,4.41-1.57-.13-3.14-.26-4.71-.4-5.32-.47-10.74-.94-16.12-.91v.43c5.36-.03,10.76,.44,16.08,.91,1.57,.14,3.15,.28,4.72,.4,9.82,.81,24.13,1.22,35.03-4.46,10.19-5.31,16.03-13.28,22.22-21.72,4.64-6.32,9.43-12.86,16.33-18.57,2.53-2.09,5.27-3.98,7.92-5.8,2.31-1.59,4.69-3.23,6.93-5,1.15-.91,2.31-1.89,3.45-2.93,.49-.45,.98-.9,1.46-1.36,4.9-4.68,9.52-10.27,14.14-17.1,4.02-5.93,7.11-11.43,9.44-16.81,2.91-6.71,8.56-22.4,4.35-34.93h-.47Z"/>
              <path class="cls-12" d="M124.29,0c3.65,8.72,2.64,20.99-3,33.89-2.27,5.2-5.34,10.48-9.37,16.16-4.38,6.17-9.09,11.67-14.02,16.32-.47,.44-.94,.88-1.42,1.31-1.1,1-2.22,1.95-3.32,2.85-2.21,1.79-4.56,3.48-6.84,5.12-2.48,1.78-5.04,3.62-7.45,5.61-6.18,5.11-10.92,10.73-15.52,16.17-6.9,8.17-13.41,15.89-23.9,20.85-10.29,4.86-23.37,4.89-33.61,4.37-1.33-.07-2.67-.14-4-.21-.62-.03-1.24-.07-1.86-.1v.43c.61,.03,1.23,.07,1.84,.1,1.33,.07,2.67,.15,4,.21,10.29,.52,23.44,.5,33.83-4.41,10.58-5,17.12-12.76,24.05-20.97,4.58-5.42,9.31-11.03,15.46-16.12,2.4-1.98,4.95-3.82,7.42-5.59,2.28-1.64,4.64-3.33,6.86-5.13,1.11-.9,2.23-1.86,3.34-2.86,.48-.43,.96-.87,1.42-1.32,4.94-4.68,9.68-10.19,14.07-16.39,4.05-5.7,7.13-11.01,9.41-16.23,5.65-12.93,6.68-25.24,3.06-34.06h-.47Z"/>
              <path class="cls-13" d="M107,0c5.04,9.85,2.64,23.14-1.7,33.01-2.22,5.04-5.27,10.14-9.34,15.57-4.17,5.59-8.87,10.85-13.96,15.62-.46,.43-.92,.85-1.38,1.27-1.07,.97-2.15,1.91-3.21,2.79-2.24,1.86-4.61,3.64-6.9,5.36-2.26,1.7-4.59,3.45-6.81,5.29-5.19,4.29-9.6,8.84-13.86,13.25-7.88,8.15-15.33,15.84-26.5,20.56-7.07,2.98-15.33,4.01-23.34,4.28v.43c8.06-.27,16.38-1.3,23.52-4.31,11.25-4.76,18.73-12.48,26.64-20.66,4.25-4.4,8.65-8.94,13.83-13.22,2.22-1.83,4.54-3.58,6.79-5.27,2.3-1.73,4.67-3.51,6.92-5.38,1.06-.88,2.15-1.83,3.23-2.8,.47-.42,.93-.85,1.39-1.28,5.11-4.79,9.82-10.06,14.01-15.67,4.09-5.46,7.16-10.59,9.39-15.66,4.36-9.9,6.76-23.22,1.79-33.18h-.5Z"/>
              <path class="cls-16" d="M89.63,0c5.91,9.67,3.73,22.99-.33,32.14-2.17,4.88-5.21,9.79-9.31,14.99-3.88,4.94-8.56,9.96-13.9,14.91-.45,.41-.89,.82-1.35,1.23-1.05,.95-2.09,1.87-3.11,2.73-2.39,2.03-4.9,4.01-7.33,5.92-1.91,1.51-3.89,3.06-5.81,4.65-3.78,3.12-7.3,6.32-10.7,9.42-9.36,8.53-18.2,16.58-30.6,21.18-2.31,.86-4.73,1.52-7.2,2.06v.44c2.52-.55,5-1.23,7.36-2.1,12.48-4.63,21.35-12.71,30.75-21.27,3.4-3.1,6.91-6.3,10.68-9.41,1.91-1.58,3.89-3.14,5.8-4.64,2.43-1.91,4.95-3.89,7.34-5.93,1.02-.87,2.07-1.79,3.12-2.74,.45-.41,.9-.82,1.35-1.24,5.35-4.97,10.05-10,13.95-14.96,4.12-5.23,7.18-10.16,9.36-15.08,4.07-9.17,6.26-22.52,.43-32.3h-.51Z"/>
              <path class="cls-17" d="M72.15,0c6.43,8.9,5.41,21.74,1.15,31.26-2.12,4.73-5.15,9.45-9.27,14.41-3.63,4.37-7.9,8.75-13.84,14.21-.43,.4-.87,.8-1.31,1.19-.99,.9-1.99,1.79-3,2.67-3.17,2.77-6.49,5.49-9.7,8.13-.96,.79-1.92,1.57-2.87,2.36-1.3,1.07-2.58,2.14-3.86,3.2-9.51,7.91-18.61,15.47-29.45,20.64v.48c10.98-5.2,20.15-12.82,29.74-20.8,1.28-1.06,2.56-2.13,3.85-3.2,.96-.79,1.92-1.57,2.87-2.36,3.21-2.64,6.54-5.36,9.71-8.13,1.01-.89,2.01-1.78,3.01-2.68,.44-.4,.88-.8,1.31-1.2,3.7-3.4,9.17-8.57,13.88-14.25,4.15-4.99,7.2-9.74,9.34-14.51,4.27-9.54,5.33-22.41-.99-31.43h-.57Z"/>
              <path class="cls-18" d="M54.66,0c7.32,8.61,6.67,21.45,2.64,30.38-4.93,10.91-14.54,19.64-23.03,27.33-10.33,9.37-21.52,19.52-34.28,27.35v.51c12.9-7.88,24.17-18.11,34.58-27.55,8.52-7.72,18.17-16.48,23.13-27.47,4.04-8.95,4.72-21.8-2.48-30.55h-.58Z"/>
            </g>
          </g>
        </g>
        <rect class="cls-49" x="73.64" y="-72" width="288" height="432" transform="translate(73.64 361.64) rotate(-90)"/>
      </g>
    </g>
  </g>
</svg>