<?xml version="1.0" encoding="utf-8"?>
<!-- Generator: Adobe Illustrator 26.4.1, SVG Export Plug-In . SVG Version: 6.00 Build 0)  -->
<svg version="1.1" id="Layer_1" xmlns="http://www.w3.org/2000/svg" xmlns:xlink="http://www.w3.org/1999/xlink" x="0px" y="0px"
	 viewBox="0 0 512 512" style="enable-background:new 0 0 512 512;" xml:space="preserve">
<style type="text/css">
	.st0{clip-path:url(#SVGID_00000080902872464423268050000011409897077837653436_);}
	.st1{clip-path:url(#SVGID_00000171711621450281040230000010757961464922916015_);fill:#231F20;}
	.st2{clip-path:url(#SVGID_00000091714116555416946710000012456019888594662319_);fill:#231F20;}
	
		.st3{clip-path:url(#SVGID_00000171701354985014318460000014708706511678059156_);fill:url(#XMLID_00000031187931593645812630000012637930786123224764_);}
	.st4{clip-path:url(#SVGID_00000152976260539222805520000009761867370946027177_);fill:#4A659B;}
	
		.st5{clip-path:url(#SVGID_00000090982828704489629210000008027041640466435715_);fill:url(#XMLID_00000094606464998468110820000016197042324498138815_);}
	.st6{clip-path:url(#SVGID_00000086685069584025026110000006506742868046911924_);}
	.st7{clip-path:url(#SVGID_00000150101444462411122710000000762666816663532943_);fill:#617CBE;}
	.st8{clip-path:url(#SVGID_00000130648523513800579230000010443308567565132160_);fill:#FFFFFF;}
	.st9{clip-path:url(#SVGID_00000091709011375547110990000006854387272272037046_);fill:#FFFFFF;}
	.st10{clip-path:url(#SVGID_00000079466810174469931570000009552870077411415427_);fill:#08090D;}
	.st11{clip-path:url(#SVGID_00000062899407742758437730000001784109268799347613_);fill:#08090D;}
	.st12{clip-path:url(#SVGID_00000151503928603103268300000012474074633304144565_);fill:#08090D;}
</style>
<g id="g3068">
</g>
<g id="XMLID_1_">
	<g id="XMLID_5_">
		<g>
			<g>
				<defs>
					<path id="SVGID_1_" d="M256,390.7c141.4,0,256-60.3,256-134.7S397.4,121.3,256,121.3S0,181.7,0,256S114.6,390.7,256,390.7"/>
				</defs>
				<clipPath id="SVGID_00000032626159820670480430000007285485941975230338_">
					<use xlink:href="#SVGID_1_"  style="overflow:visible;"/>
				</clipPath>
				<g id="XMLID_8_" style="clip-path:url(#SVGID_00000032626159820670480430000007285485941975230338_);">
					<g>
						<g>
							<defs>
								<rect id="SVGID_00000024684579314331593280000000595712651115507617_" x="-0.4" y="122.2" width="513" height="269"/>
							</defs>
							<clipPath id="SVGID_00000063608226368868565570000015122733034608703621_">
								<use xlink:href="#SVGID_00000024684579314331593280000000595712651115507617_"  style="overflow:visible;"/>
							</clipPath>
							<path id="XMLID_9_" style="clip-path:url(#SVGID_00000063608226368868565570000015122733034608703621_);fill:#231F20;" d="
								M256,390.7c141.4,0,256-60.3,256-134.7S397.4,121.3,256,121.3S0,181.7,0,256S114.6,390.7,256,390.7"/>
						</g>
					</g>
					<g>
						<g>
							<defs>
								<rect id="SVGID_00000097477229496007177940000012965128826901929611_" x="-0.4" y="122.2" width="513" height="269"/>
							</defs>
							<clipPath id="SVGID_00000149356367769496127170000000201986645479765382_">
								<use xlink:href="#SVGID_00000097477229496007177940000012965128826901929611_"  style="overflow:visible;"/>
							</clipPath>
							<path id="XMLID_10_" style="clip-path:url(#SVGID_00000149356367769496127170000000201986645479765382_);fill:#231F20;" d="
								M432.3,356.6C328.5,510.5,119.5,551.1-34.4,447.3s-194.6-312.8-90.8-466.7s313-194.4,466.8-90.8
								C495.5-6.3,536.1,202.7,432.3,356.6"/>
						</g>
					</g>
					<g>
						<g>
							<defs>
								<rect id="SVGID_00000081608477936117117370000018383278505684267956_" x="-0.4" y="122.2" width="513" height="269"/>
							</defs>
							<clipPath id="SVGID_00000091707446746118292010000010483419052655398822_">
								<use xlink:href="#SVGID_00000081608477936117117370000018383278505684267956_"  style="overflow:visible;"/>
							</clipPath>
							
								<radialGradient id="XMLID_00000032635002594287720120000001925522923096764552_" cx="-705.5443" cy="728.6938" r="1.2167" gradientTransform="matrix(229.071 154.49 -154.49 229.071 274349.3438 -57754.3594)" gradientUnits="userSpaceOnUse">
								<stop  offset="0" style="stop-color:#4A659B"/>
								<stop  offset="1" style="stop-color:#231F20"/>
							</radialGradient>
							
								<rect id="XMLID_11_" x="-0.4" y="122.2" style="clip-path:url(#SVGID_00000091707446746118292010000010483419052655398822_);fill:url(#XMLID_00000032635002594287720120000001925522923096764552_);" width="513" height="269"/>
						</g>
					</g>
					<g>
						<g>
							<defs>
								<rect id="SVGID_00000020398358265119855450000011298295838749523083_" x="-0.4" y="122.2" width="513" height="269"/>
							</defs>
							<clipPath id="SVGID_00000168827142293331936760000008930637899735686538_">
								<use xlink:href="#SVGID_00000020398358265119855450000011298295838749523083_"  style="overflow:visible;"/>
							</clipPath>
							<path id="XMLID_12_" style="clip-path:url(#SVGID_00000168827142293331936760000008930637899735686538_);fill:#4A659B;" d="
								M293,262.7c-51.9,76.9-156.4,97.2-233.3,45.3S-37.5,151.6,14.4,74.8s156.4-97.2,233.3-45.3C324.6,81.2,344.9,185.7,293,262.7
								"/>
						</g>
					</g>
					<g>
						<g>
							<defs>
								<rect id="SVGID_00000039104648748127320560000008546713305170881213_" x="-0.4" y="122.2" width="513" height="269"/>
							</defs>
							<clipPath id="SVGID_00000159432692283660259910000013279644200810096532_">
								<use xlink:href="#SVGID_00000039104648748127320560000008546713305170881213_"  style="overflow:visible;"/>
							</clipPath>
							
								<radialGradient id="XMLID_00000174579822120411250080000015591028867586065573_" cx="-702.4279" cy="729.359" r="1.2167" gradientTransform="matrix(114.5355 77.2449 -77.2449 114.5355 136945.875 -29109.8398)" gradientUnits="userSpaceOnUse">
								<stop  offset="0" style="stop-color:#FFFFFF"/>
								<stop  offset="1" style="stop-color:#4A659B"/>
							</radialGradient>
							
								<rect id="XMLID_13_" x="-0.4" y="122.2" style="clip-path:url(#SVGID_00000159432692283660259910000013279644200810096532_);fill:url(#XMLID_00000174579822120411250080000015591028867586065573_);" width="513" height="269"/>
						</g>
					</g>
				</g>
			</g>
		</g>
		<g>
			<g>
				<defs>
					<path id="SVGID_00000181785706051479853420000002304681082356366011_" d="M256,390.7c141.4,0,256-60.3,256-134.7
						S397.4,121.3,256,121.3S0,181.7,0,256S114.6,390.7,256,390.7"/>
				</defs>
				<clipPath id="SVGID_00000121966903626186152740000013596114023051937958_">
					<use xlink:href="#SVGID_00000181785706051479853420000002304681082356366011_"  style="overflow:visible;"/>
				</clipPath>
				<g id="XMLID_15_" style="clip-path:url(#SVGID_00000121966903626186152740000013596114023051937958_);">
					<g>
						<g>
							<defs>
								<rect id="SVGID_00000015323730307413075660000004933638340674767283_" x="-0.4" y="122.2" width="513" height="269"/>
							</defs>
							<clipPath id="SVGID_00000145781386702886415180000002253047874203810949_">
								<use xlink:href="#SVGID_00000015323730307413075660000004933638340674767283_"  style="overflow:visible;"/>
							</clipPath>
							<path id="XMLID_16_" style="clip-path:url(#SVGID_00000145781386702886415180000002253047874203810949_);fill:#617CBE;" d="
								M256,380.7c135.9,0,246-55.8,246-124.7S391.9,131.3,256,131.3S10,187.1,10,256S120.1,380.7,256,380.7"/>
						</g>
					</g>
					<g>
						<g>
							<defs>
								<rect id="SVGID_00000026130186779075510200000001339998706749318799_" x="-0.4" y="122.2" width="513" height="269"/>
							</defs>
							<clipPath id="SVGID_00000080183047135156379710000000013217422467281061_">
								<use xlink:href="#SVGID_00000026130186779075510200000001339998706749318799_"  style="overflow:visible;"/>
							</clipPath>
							<path id="XMLID_19_" style="clip-path:url(#SVGID_00000080183047135156379710000000013217422467281061_);fill:#FFFFFF;" d="
								M305.8,296.3l12.2-62.8c2.8-14.2,0.4-24.7-6.9-31.4c-7-6.4-18.9-9.5-36.5-9.5h-21.2l6-31.1c0.3-1.1-0.1-2.4-0.8-3.4
								c-0.7-1-1.8-1.4-3.1-1.4h-29c-2,0-3.5,1.4-3.9,3.2l-12.9,66.6c-1.1-7.4-4.1-13.9-8.7-19.2c-8.6-9.8-22-14.7-40.3-14.7h-56.5
								c-2,0-3.5,1.4-3.9,3.2L74.1,330.6c-0.3,1.1,0.1,2.4,0.8,3.4c0.7,1,1.8,1.4,3.1,1.4h29.5c2,0,3.5-1.4,3.9-3.2l6.3-32.7h21.9
								c11.5,0,21.2-1.3,28.6-3.6c7.7-2.5,14.7-6.7,21-12.6c5.1-4.6,9.3-9.8,12.5-15.4l-5.2,26.9c-0.3,1.1,0.1,2.4,0.8,3.4
								c0.7,1,1.8,1.4,3.1,1.4h29.2c2,0,3.5-1.4,3.9-3.2l14.4-74.1h20.1c8.6,0,11.1,1.7,11.6,2.4s2,2.9,0.4,10.4l-11.6,59.8
								c-0.3,1.1,0.1,2.4,0.8,3.4c0.7,1,1.8,1.4,3.1,1.4H302C303.8,299.5,305.5,298.2,305.8,296.3z M170.6,244.4
								c-1.8,9.4-5.3,16.1-10.2,19.9c-5.1,3.9-13.2,5.9-24,5.9h-13l9.4-48.5h16.8c12.3,0,17.4,2.7,19.4,4.9
								C171.7,229.6,172.3,235.8,170.6,244.4"/>
						</g>
					</g>
					<g>
						<g>
							<defs>
								<rect id="SVGID_00000073684942474591466510000009267114357949961120_" x="-0.4" y="122.2" width="513" height="269"/>
							</defs>
							<clipPath id="SVGID_00000145780637367974777600000002925904102401534125_">
								<use xlink:href="#SVGID_00000073684942474591466510000009267114357949961120_"  style="overflow:visible;"/>
							</clipPath>
							<path id="XMLID_22_" style="clip-path:url(#SVGID_00000145780637367974777600000002925904102401534125_);fill:#FFFFFF;" d="
								M430.5,207.2c-8.6-9.8-22-14.7-40.3-14.7h-56.5c-2,0-3.5,1.4-3.9,3.2l-26.1,134.9c-0.3,1.1,0.1,2.4,0.8,3.4
								c0.7,1,1.8,1.4,3.1,1.4h29.5c2,0,3.5-1.4,3.9-3.2l6.2-32.7h21.9c11.5,0,21.2-1.3,28.6-3.6c7.7-2.5,14.7-6.7,21-12.6
								c5.2-4.8,9.5-10.1,12.8-16c3.2-5.8,5.6-12.3,6.9-19.2C441.9,230.8,439.2,217.1,430.5,207.2z M400.1,244.4
								c-1.8,9.4-5.3,16.1-10.2,19.9c-5,3.9-13.2,5.9-24,5.9h-13l9.4-48.5H379c12.3,0,17.4,2.7,19.4,4.9
								C401.2,229.6,401.7,235.8,400.1,244.4"/>
						</g>
					</g>
					<g>
						<g>
							<defs>
								<rect id="SVGID_00000082355811555087328220000006875519050166607016_" x="-0.4" y="122.2" width="513" height="269"/>
							</defs>
							<clipPath id="SVGID_00000120547194964298005880000016968437888701520529_">
								<use xlink:href="#SVGID_00000082355811555087328220000006875519050166607016_"  style="overflow:visible;"/>
							</clipPath>
							<path id="XMLID_25_" style="clip-path:url(#SVGID_00000120547194964298005880000016968437888701520529_);fill:#08090D;" d="
								M149.5,217.7c11.2,0,18.7,2.1,22.3,6.2c3.8,4.1,4.6,11.2,2.7,21.2c-2,10.4-5.9,18-11.8,22.3c-5.8,4.5-14.6,6.7-26.5,6.7
								h-17.8l10.9-56.5h20.2L149.5,217.7L149.5,217.7z M77.8,331.5h29.5l7-35.9h25.3c11.1,0,20.2-1.1,27.5-3.5
								c7.1-2.4,13.8-6.3,19.5-11.8c4.9-4.5,9-9.5,11.9-15c3.1-5.5,5.2-11.5,6.4-18.1c3.1-16,0.7-28.5-7-37.5
								c-7.9-9-20.2-13.3-37.2-13.3h-56.5L77.8,331.5"/>
						</g>
					</g>
					<g>
						<g>
							<defs>
								<rect id="SVGID_00000084516711230248497340000001622691872476431018_" x="-0.4" y="122.2" width="513" height="269"/>
							</defs>
							<clipPath id="SVGID_00000164498902531437832950000012240490925107755143_">
								<use xlink:href="#SVGID_00000084516711230248497340000001622691872476431018_"  style="overflow:visible;"/>
							</clipPath>
							<path id="XMLID_26_" style="clip-path:url(#SVGID_00000164498902531437832950000012240490925107755143_);fill:#08090D;" d="
								M226.5,160.6h29.2l-7,35.9h25.9c16.4,0,27.6,2.8,33.8,8.6c6.2,5.8,8.1,15,5.6,27.8l-12.2,62.8h-29.6l11.6-59.8
								c1.3-6.7,0.8-11.4-1.4-13.9c-2.2-2.5-7.1-3.6-14.6-3.6h-23.3l-15,77.3h-29.2L226.5,160.6"/>
						</g>
					</g>
					<g>
						<g>
							<defs>
								<rect id="SVGID_00000113352304187568441930000004083337206672509083_" x="-0.4" y="122.2" width="513" height="269"/>
							</defs>
							<clipPath id="SVGID_00000036218466569018034490000013359704756854968964_">
								<use xlink:href="#SVGID_00000113352304187568441930000004083337206672509083_"  style="overflow:visible;"/>
							</clipPath>
							<path id="XMLID_29_" style="clip-path:url(#SVGID_00000036218466569018034490000013359704756854968964_);fill:#08090D;" d="
								M379,217.7c11.2,0,18.7,2.1,22.3,6.2c3.8,4.1,4.6,11.2,2.7,21.2c-2,10.4-5.9,18-11.8,22.3c-5.8,4.5-14.6,6.7-26.5,6.7h-17.8
								l10.9-56.5H379L379,217.7L379,217.7z M307.3,331.5h29.5l7-35.9h25.2c11.1,0,20.2-1.1,27.5-3.5c7.1-2.4,13.8-6.3,19.5-11.8
								c4.9-4.5,9-9.5,11.9-15c3.1-5.5,5.2-11.5,6.5-18.1c3.1-16,0.7-28.5-7-37.5c-7.9-9-20.2-13.3-37.2-13.3h-56.5L307.3,331.5"/>
						</g>
					</g>
				</g>
			</g>
		</g>
	</g>
</g>
</svg>
